<svg width="25" height="30" viewBox="0 0 25 30" fill="none" xmlns="http://www.w3.org/2000/svg">
<path d="M15.4969 22.6C4.6727 32.5848 0.379015 22.7809 0.379015 22.7809C0.379015 22.7809 -1.58357 16.3622 3.42316 9.3714C9.45145 0.932109 18.841 -0.230288 21.6057 0.0327721C21.6057 0.0327721 19.5335 -0.13164 15.7026 2.00572C12.1939 3.94579 8.46759 8.44247 8.00823 13.3288C7.15292 22.4307 15.4969 22.6 15.4969 22.6Z" fill="url(#paint0_linear_662_7671)"/>
<path d="M14.9021 19.6552C14.8999 19.6575 14.8978 19.6598 14.8958 19.662C9.04095 25.9977 3.88059 25.7525 1.61485 23.6966C1.4711 23.5664 1.33437 23.4292 1.2052 23.2856C1.07045 23.1353 0.947832 22.9753 0.838392 22.8071C0.113351 21.7023 0.0242205 20.4248 0.00708008 19.9381C0.00708008 27.9746 7.76484 31.2826 14.1634 29.553C16.8716 28.823 18.1691 28.1292 20.1625 26.7218C21.7009 25.6357 23.2259 24.1286 24.2927 22.7279C24.3891 22.6013 24.5611 22.3518 24.8086 21.9796C24.9297 21.7975 24.8778 21.5532 24.6927 21.4341C24.6578 21.4116 24.6196 21.3947 24.5794 21.3838V21.3838C24.3307 21.3167 24.0667 21.2454 23.7872 21.17C21.9906 20.6851 19.5579 20.0284 16.489 19.2001V19.2001C15.9152 19.0452 15.3015 19.2212 14.9021 19.6552Z" fill="url(#paint1_linear_662_7671)"/>
<defs>
<linearGradient id="paint0_linear_662_7671" x1="10.7847" y1="-2.39218" x2="-3.48114" y2="12.3251" gradientUnits="userSpaceOnUse">
<stop stop-color="#1B73B8"/>
<stop offset="1" stop-color="#05498C"/>
</linearGradient>
<linearGradient id="paint1_linear_662_7671" x1="12.9285" y1="15.0984" x2="4.84081" y2="31.4868" gradientUnits="userSpaceOnUse">
<stop stop-color="#119CDD"/>
<stop offset="1" stop-color="#3FBBF9"/>
</linearGradient>
</defs>
</svg>
